<?xml version="1.0" encoding="utf-8"?>
<!-- Generator: Adobe Illustrator 25.2.3, SVG Export Plug-In . SVG Version: 6.00 Build 0)  -->
<svg version="1.1" id="图层_1" xmlns="http://www.w3.org/2000/svg" xmlns:xlink="http://www.w3.org/1999/xlink" x="0px" y="0px"
	 viewBox="0 0 371 148" style="enable-background:new 0 0 371 148;" xml:space="preserve">
<style type="text/css">
	.st0{display:none;fill:#5FBB1C;}
	.st1{fill:#5FBB1C;}
</style>
<g>
	<g>
		<path class="st0" d="M108.7,128.9L87.8,94.6L75,106.8v18.8c0,4.6-1.2,8.1-3.6,10.5c-2.4,2.5-5.2,3.7-8.3,3.7
			c-3.6,0-6.5-1.2-8.6-3.6c-2.1-2.4-3.1-6-3.1-10.8v-101c0-5.3,1-9.3,3-12s4.9-4.1,8.7-4.1c3.6,0,6.5,1.2,8.7,3.7
			c2.1,2.5,3.2,6.2,3.2,11v57.5l26.6-28c3.3-3.5,5.8-5.8,7.6-7.1c1.7-1.3,3.8-1.9,6.3-1.9c3,0,5.4,0.9,7.4,2.8c2,1.9,3,4.2,3,7.1
			c0,3.5-3.2,8.1-9.6,13.9l-12.6,11.5L128,117c1.8,2.8,3.1,5,3.9,6.5c0.8,1.5,1.2,2.9,1.2,4.2c0,3.8-1,6.7-3.1,8.9
			c-2.1,2.2-4.8,3.3-8.1,3.3c-2.9,0-5.1-0.8-6.7-2.3C113.5,135.9,111.4,133.1,108.7,128.9z"/>
		<path class="st1" d="M141.5,32.5c-3.3,0-6-1-8.4-3c-2.3-2-3.5-4.8-3.5-8.5c0-3.3,1.2-6,3.6-8.2c2.4-2.1,5.1-3.2,8.3-3.2
			c3,0,5.7,1,8.1,2.9c2.3,1.9,3.5,4.8,3.5,8.5c0,3.6-1.1,6.4-3.4,8.4C147.4,31.4,144.7,32.5,141.5,32.5z M153.1,56.6v67.6
			c0,4.7-1.1,8.2-3.3,10.6c-2.2,2.4-5.1,3.6-8.5,3.6s-6.2-1.2-8.4-3.7c-2.1-2.5-3.2-6-3.2-10.5V57.3c0-4.6,1.1-8.1,3.2-10.5
			c2.1-2.3,4.9-3.5,8.4-3.5c3.4,0,6.3,1.2,8.5,3.5S153.1,52.4,153.1,56.6z"/>
		<path class="st1" d="M191.8,57.9l15.2,52.3l14-48.6c1.5-5.1,2.6-8.6,3.3-10.4c0.7-1.9,2.1-3.6,4-5.3s4.7-2.5,8.1-2.5
			c3.5,0,6.2,0.8,8.2,2.5s3.4,3.5,4.2,5.5s1.9,5.4,3.3,10.2l13.9,48.6l15.4-52.3c1-3.8,1.9-6.5,2.5-8.2s1.7-3.2,3.2-4.5
			s3.6-1.9,6.4-1.9s5.2,1,7.3,2.9s3.1,4.2,3.1,6.9c0,2.4-0.9,6-2.7,10.9L282,120c-1.7,4.7-2.9,8.2-3.9,10.3c-0.9,2.1-2.4,4-4.3,5.7
			c-2,1.7-4.7,2.5-8.1,2.5c-3.5,0-6.3-0.9-8.4-2.7c-2-1.8-3.5-3.9-4.5-6.5c-1-2.6-2-5.9-3.2-10l-13.4-45.6l-12.9,45.6
			c-1.7,6.3-3.6,11.1-5.6,14.3s-5.5,4.8-10.5,4.8c-2.6,0-4.8-0.5-6.6-1.5s-3.3-2.4-4.5-4.3s-2.3-4.1-3.2-6.6c-0.9-2.5-1.6-4.6-2.1-6
			L172,64c-1.9-5.3-2.8-8.9-2.8-10.9c0-2.5,1-4.8,3-6.8s4.5-3,7.4-3c3.9,0,6.5,1.1,7.9,3.3C188.8,48.8,190.3,52.6,191.8,57.9z"/>
		<path class="st1" d="M331.7,32.5c-3.3,0-6-1-8.4-3s-3.5-4.8-3.5-8.5c0-3.3,1.2-6,3.6-8.2s5.1-3.2,8.3-3.2c3,0,5.7,1,8.1,2.9
			c2.3,1.9,3.5,4.8,3.5,8.5c0,3.6-1.1,6.4-3.4,8.4C337.6,31.4,334.9,32.5,331.7,32.5z M343.3,56.6v67.6c0,4.7-1.1,8.2-3.3,10.6
			c-2.2,2.4-5.1,3.6-8.5,3.6s-6.2-1.2-8.4-3.7c-2.1-2.5-3.2-6-3.2-10.5V57.3c0-4.6,1.1-8.1,3.2-10.5s4.9-3.5,8.4-3.5
			c3.4,0,6.3,1.2,8.5,3.5S343.3,52.4,343.3,56.6z"/>
	</g>
	<path class="st0" d="M111.6,114.1c-0.2,5.1-2.9,9.8-7.5,12.7c-8.7,5.5-21.6,3.2-28.7-5.1l0,0C70,115.6,59,96.3,47.9,75.8
		c28.5,10.4,53.4,20.9,59.2,26.3C110.1,105.6,111.8,109.8,111.6,114.1L111.6,114.1z"/>
	<path class="st1" d="M113.5,36.4L113.5,36.4c0-5.4-2.6-10.1-7.2-13c-8.8-5.4-22.2-2.5-30,6.6c0,0,0,0,0,0.1
		c-4.9,5.6-14.5,21.4-24.9,39.6V22.3c0-4.2-1.1-7.5-3.4-9.9s-5.1-3.6-8.6-3.6s-6.3,1.2-8.5,3.6s-3.3,5.9-3.3,10.6v102.4
		c0,4.6,1.1,8.2,3.3,10.7s5,3.7,8.5,3.7s6.3-1.2,8.6-3.6s3.4-6,3.4-10.8V82.5c10.3,18.1,20,33.9,24.9,39.6c0,0,0,0,0,0.1
		c7.8,9,21.2,12,30,6.6c4.6-2.9,7.2-7.7,7.2-13l0,0c0-4.5-1.9-9-5.2-12.8c-5.6-5.5-27.7-16-54.2-27c26.5-11,48.6-21.5,54.2-26.8
		C111.6,45.4,113.5,40.9,113.5,36.4z"/>
</g>
</svg>
