<svg id="图层_1" data-name="图层 1" xmlns="http://www.w3.org/2000/svg" viewBox="0 0 1024 1024"><defs><style>.cls-1{fill:#fff;}.cls-2{fill:#5fbb1c;}</style></defs><circle class="cls-1" cx="512" cy="512" r="512"/><path class="cls-2" d="M638.29,611.43c9.22,6.63,20.11,8.55,29.79,5.11,18.2-6.7,26.69-30.74,19-53.7l0-.13c-5.67-17-32.83-71.19-58.51-117.18-9.38,60.6-11,125.47-7.08,142.13,3.23,9.72,9.11,18.2,16.87,23.77Z"/><path class="cls-2" d="M656.54,250.63c-4,7.65-7,37-7.83,72,12.39-8.85,25.6-18.75,36.35-28,13.38-11.53,16.65-16.61,17.17-17.52a26.73,26.73,0,0,0-9.76-36.1,26.22,26.22,0,0,0-35.85,9.47A1,1,0,0,0,656.54,250.63Z"/><path class="cls-2" d="M574,454.25c-35.55,40.7-65.06,78-69.42,90.56a34.74,34.74,0,0,0,22.59,43.65l.46.15,0-.11a35,35,0,0,0,43.86-22.81l.12-.38c3.8-12.5,4.16-58.6,2.37-111.06Z"/><path class="cls-2" d="M777.6,438.52c12.45,2.48,25-6,27.59-18.93A23.83,23.83,0,0,0,786.54,392c-8.55-1.53-60.1.38-96.64,4.85,29.58,19,79.74,39.52,87.7,41.72Z"/><path class="cls-2" d="M407.14,469.38A35.17,35.17,0,0,0,446.05,483c12.54-4.76,48.55-36.41,87.45-74.27-50.68.76-94.69,3.1-107.8,7.08a34.31,34.31,0,0,0-20.56,16.67,35.48,35.48,0,0,0-2.58,27.12A32.21,32.21,0,0,0,407.14,469.38Z"/><path class="cls-2" d="M733.57,315.37c-6.83,2.47-26.36,20.1-47.86,42.83q19.49,3,39.19,4.29c16.57,1,21.7-.35,22.22-.49a24.21,24.21,0,0,0,17.11-29.65,2.17,2.17,0,0,1-.07-.24,24.47,24.47,0,0,0-21.91-17.74A29.24,29.24,0,0,0,733.57,315.37Z"/><path class="cls-2" d="M683.19,439c20,31.05,67.52,81.24,75.73,86.48a25.44,25.44,0,0,0,34.51-10.24c.06-.1.11-.2.16-.3a25.72,25.72,0,0,0-10.49-34.78C775.89,476.49,717.8,445.79,683.19,439Z"/><path class="cls-2" d="M571.93,208.51l.08.89,0,.89c0,.06,14.46,73.09,28.94,92.25,13.92-17.1,12.75-95.92,10.75-102-2.17-10-8.77-18.86-19-18-13.4.9-21.7,12.48-20.81,25.88Z"/><path class="cls-2" d="M558.73,312.49c-4.84-43.95-17.62-88.54-23.29-100.08a34.75,34.75,0,0,0-47.84-10.68l-3.87,2.42a35,35,0,0,0-8,44.95C482.31,256.9,514.78,287.06,558.73,312.49Z"/><path class="cls-2" d="M447,286.26a35.52,35.52,0,0,0-49.14,8.93,35,35,0,0,0-5,28.09,33.72,33.72,0,0,0,13.85,20.57c11.51,6.27,66.64,20.4,120.07,19.07-24.6-34.28-68.07-68.7-79.79-76.66Z"/><path class="cls-2" d="M841.2,685.14c-76,152.47-416.18,295.21-604.11-22.92-116.92-252.1-21.2-435.56,64.3-491.13C201.75,276.89,237,501.32,314.48,631.57,422,813.41,668.78,852.43,841.2,685.14Z"/></svg>